<?xml version="1.0" encoding="utf-8"?>
<!-- Generator: Adobe Illustrator 14.0.0, SVG Export Plug-In . SVG Version: 6.00 Build 43363)  -->
<!DOCTYPE svg PUBLIC "-//W3C//DTD SVG 1.1//EN" "http://www.w3.org/Graphics/SVG/1.1/DTD/svg11.dtd">
<svg version="1.1" id="Layer_1" xmlns="http://www.w3.org/2000/svg" xmlns:xlink="http://www.w3.org/1999/xlink" x="0px" y="0px"
	 width="232px" height="130px" viewBox="0 0 232 130" enable-background="new 0 0 232 130" xml:space="preserve">
<g>
	<g>
		<g>
			<path fill="#9C843F" d="M162.664,118.614v-14.952c0-10.536,9.142-9.142,9.142-9.142h24.791v-3.822c0,0-27.726-0.123-29.58-34.989
				c0,0-10.633,13.848-30.786,5.44c-20.153-8.408-20.647-21.143-20.647-21.143s-5.935,21.761-26.582,22.749
				c-20.647,0.989-23.491-8.159-23.491-8.159s2.473,23.738-11.869,29.178c-14.342,5.44-14.465,7.171-14.465,7.171l-3.771,3.575
				h24.797c0,0,9.142-1.395,9.142,9.142v14.952H162.664z"/>
		</g>
	</g>
	<g>
		<g>
			<path fill="#1D1D1B" d="M164.147,120.098H67.86v-16.436c0-6.38-3.602-7.719-6.624-7.719c-0.496,0-0.814,0.044-0.817,0.044
				l-0.217,0.017H36.629l1.301-5.923c0.684-1.112,3.462-3.247,15.185-7.693c13.122-4.978,10.943-27.412,10.92-27.638l2.892-0.595
				c0.018,0.052,2.668,7.192,19.036,7.191c0.957,0,1.955-0.023,2.967-0.072c19.347-0.927,25.165-21.451,25.222-21.658l2.54-9.312
				l0.373,9.645c0.025,0.475,0.823,11.94,19.736,19.83c4.128,1.723,8.146,2.596,11.946,2.595c11.087,0,17.035-7.496,17.095-7.572
				l2.442-3.144l0.214,3.972c1.754,32.994,27.032,33.576,28.108,33.585l1.47,0.012l0.004,6.777l-26.499-0.018l0,0
				c0,0-0.316-0.043-0.812-0.043c-3.021,0-6.622,1.339-6.622,7.719V120.098L164.147,120.098z M70.827,117.131h90.354v-13.469
				c0-9.915,7.341-10.687,9.589-10.687c0.533,0,0.936,0.038,1.131,0.062h23.213v-0.963c-5.739-0.627-26.354-4.841-29.321-33.009
				c-2.972,2.585-8.682,6.275-17.045,6.275c-4.194,0.001-8.597-0.949-13.088-2.822c-13.287-5.544-18.388-12.947-20.345-17.713
				c-3.071,6.685-10.72,18.688-26.242,19.433c-1.059,0.051-2.105,0.076-3.109,0.076c-10.325,0.001-15.873-2.692-18.794-5.179
				c-0.059,7.508-1.716,21.745-13.002,26.026c-10.274,3.897-12.937,5.796-13.542,6.326l-0.01,0.138l-1.488,1.411h20.981
				c0.196-0.023,0.597-0.062,1.129-0.062c2.25,0,9.591,0.771,9.591,10.687V117.131L70.827,117.131z"/>
		</g>
	</g>
	<g opacity="0.09">
		<path d="M41.578,93.477c0,0,7.997-0.178,14.392-0.178c4.729-3.246,14.465-11.359,16.691-24.342
			c14.095,8.408,41.213-0.741,43.026-10.385c8.037,13.229,33.506,16.443,44.015,10.138c0.35,9.986,9.886,19.476,15.414,24.16
			c2.276,1.927,11.383,0.036,11.383,0.036l9.8-3.92l-20.771-11.374l-7.419-28.685c0,0-5.068,13.477-24.232,11.622
			s-25.47-19.534-25.47-19.534s-13.353,15.331-27.448,18.298C76.865,62.281,62.77,48.187,62.77,48.187s-1.607,25.593-7.913,32.146
			c-6.306,6.553-19.535,10.139-19.535,10.139L41.578,93.477z"/>
	</g>
	<g>
		<path fill="#9C843F" d="M196.597,29.584c-7.234,0-13.923,2.383-19.326,6.397c0.027-0.538,0.041-1.08,0.041-1.625
			c0-17.902-14.564-32.468-32.467-32.468c-12.543,0-23.439,7.152-28.844,17.591C110.595,9.041,99.699,1.889,87.157,1.889
			c-17.903,0-32.467,14.565-32.467,32.468c0,0.545,0.015,1.086,0.042,1.625c-5.403-4.015-12.092-6.397-19.326-6.397
			c-17.903,0-32.468,14.565-32.468,32.469c0,17.902,14.565,32.468,32.468,32.468s32.467-14.565,32.467-32.468
			c0-0.545-0.015-1.086-0.042-1.625c5.403,4.016,12.092,6.396,19.326,6.396c12.542,0,23.438-7.153,28.844-17.591
			c5.405,10.438,16.301,17.591,28.844,17.591c7.234,0,13.921-2.381,19.326-6.396c-0.027,0.539-0.041,1.08-0.041,1.625
			c0,17.902,14.564,32.468,32.467,32.468s32.467-14.565,32.467-32.468C229.063,44.149,214.499,29.584,196.597,29.584 M35.405,86.109
			c-13.287,0-24.057-10.771-24.057-24.056c0-13.287,10.77-24.057,24.057-24.057c13.286,0,24.056,10.77,24.056,24.057
			C59.461,75.339,48.69,86.109,35.405,86.109 M87.157,58.412c-13.286,0-24.056-10.77-24.056-24.056S73.871,10.3,87.157,10.3
			c13.286,0,24.057,10.771,24.057,24.057S100.443,58.412,87.157,58.412 M144.845,58.412c-13.287,0-24.058-10.77-24.058-24.056
			S131.558,10.3,144.845,10.3c13.285,0,24.056,10.771,24.056,24.057S158.13,58.412,144.845,58.412 M196.597,86.109
			c-13.285,0-24.056-10.771-24.056-24.056c0-13.287,10.771-24.057,24.056-24.057s24.056,10.77,24.056,24.057
			C220.652,75.339,209.882,86.109,196.597,86.109"/>
	</g>
	<g>
		<path fill="#1D1D1B" d="M196.597,96.004c-18.321,0-33.301-14.589-33.931-32.76c-5.352,3.32-11.458,5.063-17.821,5.063
			c-11.836,0-22.66-6.094-28.844-16.07c-6.184,9.977-17.006,16.07-28.844,16.07c-6.365,0-12.471-1.743-17.822-5.063
			c-0.63,18.171-15.608,32.76-33.93,32.76c-18.721,0-33.952-15.23-33.952-33.951c0-18.722,15.23-33.952,33.952-33.952
			c6.365,0,12.47,1.743,17.822,5.064c0.629-18.172,15.608-32.761,33.93-32.761c11.837,0,22.66,6.095,28.844,16.07
			c6.184-9.976,17.008-16.07,28.844-16.07c18.321,0,33.301,14.589,33.931,32.761c5.352-3.321,11.456-5.064,17.821-5.064
			c18.72,0,33.95,15.23,33.95,33.952C230.547,80.773,215.316,96.004,196.597,96.004L196.597,96.004z M165.811,57.36l-0.158,3.142
			c-0.025,0.514-0.038,1.03-0.038,1.551c0,17.085,13.897,30.984,30.982,30.984c17.083,0,30.982-13.899,30.982-30.984
			s-13.899-30.984-30.982-30.984c-6.689,0-13.067,2.111-18.441,6.104l-2.524,1.876l0.158-3.142c0.025-0.514,0.038-1.031,0.038-1.551
			c0-17.086-13.899-30.985-30.982-30.985c-11.616,0-22.164,6.434-27.526,16.79L116,22.705l-1.317-2.544
			C109.32,9.805,98.772,3.371,87.157,3.371c-17.085,0-30.984,13.899-30.984,30.985c0,0.521,0.015,1.037,0.04,1.553l0.155,3.138
			l-2.521-1.874c-5.374-3.993-11.75-6.104-18.441-6.104C18.32,31.068,4.42,44.968,4.42,62.053S18.32,93.037,35.405,93.037
			c17.084,0,30.984-13.899,30.984-30.984c0-0.521-0.015-1.037-0.04-1.552l-0.154-3.139l2.521,1.874
			c5.372,3.993,11.749,6.104,18.441,6.104c11.616,0,22.164-6.433,27.526-16.788L116,46.007l1.318,2.545
			c5.362,10.355,15.91,16.788,27.526,16.788c6.689,0,13.067-2.11,18.441-6.104L165.811,57.36L165.811,57.36z M196.597,87.593
			c-14.083,0-25.539-11.457-25.539-25.539c0-14.083,11.456-25.541,25.539-25.541s25.539,11.458,25.539,25.541
			C222.136,76.136,210.68,87.593,196.597,87.593L196.597,87.593z M196.597,39.48c-12.447,0-22.571,10.126-22.571,22.573
			c0,12.446,10.124,22.572,22.571,22.572s22.571-10.126,22.571-22.572C219.168,49.606,209.044,39.48,196.597,39.48L196.597,39.48z
			 M35.405,87.593c-14.083,0-25.541-11.457-25.541-25.539c0-14.083,11.458-25.541,25.541-25.541c14.083,0,25.54,11.458,25.54,25.541
			C60.944,76.136,49.487,87.593,35.405,87.593L35.405,87.593z M35.405,39.48c-12.447,0-22.573,10.126-22.573,22.573
			c0,12.446,10.126,22.572,22.573,22.572c12.446,0,22.572-10.126,22.572-22.572C57.977,49.606,47.851,39.48,35.405,39.48
			L35.405,39.48z M144.845,59.896c-14.083,0-25.541-11.457-25.541-25.54s11.458-25.54,25.541-25.54s25.539,11.457,25.539,25.54
			S158.928,59.896,144.845,59.896L144.845,59.896z M144.845,11.783c-12.447,0-22.573,10.126-22.573,22.573
			c0,12.446,10.126,22.572,22.573,22.572s22.571-10.126,22.571-22.572C167.416,21.909,157.292,11.783,144.845,11.783L144.845,11.783
			z M87.157,59.896c-14.083,0-25.54-11.457-25.54-25.54s11.458-25.54,25.54-25.54c14.083,0,25.54,11.457,25.54,25.54
			S101.24,59.896,87.157,59.896L87.157,59.896z M87.157,11.783c-12.446,0-22.573,10.126-22.573,22.573
			c0,12.446,10.126,22.572,22.573,22.572c12.447,0,22.573-10.126,22.573-22.572C109.729,21.909,99.604,11.783,87.157,11.783
			L87.157,11.783z"/>
	</g>
	<g>
		<path fill="#555555" d="M185.263,124.088c-0.682,2.808-3.537,4.523-6.385,3.895c-41.992-9.288-85.509-9.288-127.501,0
			c-2.848,0.629-5.701-1.087-6.386-3.895c-0.684-2.805,1.159-5.662,4.126-6.317c43.481-9.617,88.539-9.617,132.018,0
			C184.104,118.426,185.946,121.283,185.263,124.088"/>
	</g>
	<g>
		<path fill="#9C843F" d="M185.263,124.088c-0.682,2.808-3.537,4.523-6.385,3.895c-41.992-9.288-85.509-9.288-127.501,0
			c-2.848,0.629-5.701-1.087-6.386-3.895c-0.684-2.805,1.159-5.662,4.126-6.317c43.481-9.617,88.539-9.617,132.018,0
			C184.104,118.426,185.946,121.283,185.263,124.088z"/>
		<path fill="#1D1D1B" d="M180.063,129.596c-0.505,0-1.011-0.055-1.505-0.164c-41.587-9.199-85.274-9.199-126.86,0
			c-0.495,0.109-1,0.164-1.504,0.164c-3.171,0-5.903-2.12-6.643-5.156c-0.417-1.713-0.126-3.493,0.82-5.013
			c0.991-1.59,2.563-2.693,4.428-3.105c43.488-9.618,89.174-9.618,132.659,0c1.864,0.412,3.437,1.516,4.428,3.105
			c0.946,1.52,1.238,3.3,0.819,5.013C185.966,127.476,183.234,129.596,180.063,129.596L180.063,129.596z M115.127,119.533
			c21.511,0,43.068,2.355,64.071,7.001c0.284,0.063,0.574,0.095,0.864,0.095c1.798,0,3.346-1.189,3.759-2.892
			c0.229-0.932,0.065-1.905-0.456-2.741c-0.563-0.907-1.47-1.538-2.548-1.777c-43.068-9.525-88.311-9.525-131.379,0
			c-1.079,0.239-1.984,0.87-2.549,1.777c-0.521,0.836-0.683,1.81-0.456,2.74c0.415,1.703,1.961,2.893,3.76,2.893
			c0.289,0,0.58-0.032,0.865-0.095C72.06,121.889,93.616,119.533,115.127,119.533L115.127,119.533z"/>
	</g>
	<path opacity="0.09" d="M70.188,114.456c41.045-9.84,92.476,0,92.476,0l-0.989-5.688c0,0-45.988-9.973-91.342,0
		C70.333,117.378,69.694,112.726,70.188,114.456z"/>
</g>
</svg>
